<?xml version="1.0" standalone="no"?>
<!DOCTYPE svg PUBLIC "-//W3C//DTD SVG 1.1//EN" "http://www.w3.org/Graphics/SVG/1.1/DTD/svg11.dtd" >
<svg>
<metadata>
Created by FontForge 20090622 at Sat Jul  4 15:55:16 2020
 By deploy user
Copyright (C) 1993; Type Market Ltd. Moscow, 119136, Box 20; Created by S. Shanovich
</metadata>
<defs>
<font id="HeliosCondThin-Italic" horiz-adv-x="402" >
  <font-face 
    font-family="HeliosCondThin"
    font-weight="100"
    font-style="italic"
    font-stretch="normal"
    units-per-em="1000"
    panose-1="4 0 2 0 0 0 0 0 0 0"
    ascent="806"
    descent="-194"
    x-height="527"
    cap-height="726"
    bbox="-99 -194 942 904"
    underline-thickness="58"
    underline-position="-32"
    slope="-12"
    unicode-range="U+0020-U+2122"
  />
<missing-glyph horiz-adv-x="500" 
 />
    <glyph glyph-name=".notdef" horiz-adv-x="500" 
 />
    <glyph glyph-name=".null" horiz-adv-x="0" 
 />
    <glyph glyph-name="nonmarkingreturn" horiz-adv-x="333" 
 />
    <glyph glyph-name="space" unicode=" " horiz-adv-x="186" 
 />
    <glyph glyph-name="space" unicode="&#xa0;" horiz-adv-x="186" 
 />
    <glyph glyph-name="exclam" unicode="!" horiz-adv-x="188" 
d="M63 177h-10q8 34 23 122q30 182 39 227l40 185h34l-40 -185q-13 -64 -32 -136l-28.5 -113l-19.5 -77zM53 59l-12 -59h-39l12 59h39z" />
    <glyph glyph-name="quotedbl" unicode="&#x22;" horiz-adv-x="271" 
d="M72 528h-23l42 198h23zM180 528h-23l42 198h23z" />
    <glyph glyph-name="numbersign" unicode="#" 
d="M-9 0h-16l115 251h-96l12 22h94l75 162h-96l11 22h94l118 263h18l-120 -263h97l119 263h16l-119 -263h93l-12 -22h-89l-75 -162h91l-11 -22h-89l-114 -251h-19l116 251h-98zM192 435l-76 -162h97l75 162h-96z" />
    <glyph glyph-name="dollar" unicode="$" 
d="M406 527h-28q3 13 3 27q0 39 -24 70.5t-71 42.5l-66 -309q51 -23 73 -39q61 -47 61 -112q0 -17 -5 -44q-34 -159 -208 -180l-18 -81h-17l18 82q-92 8 -117 67q-13 29 -13 70q0 31 7 62h29q-6 -29 -6 -59q0 -24 5 -46q16 -64 100 -71l69 325q-70 34 -100 76q-21 32 -21 73
q0 18 5 45q10 49 41 87q49 63 150 74l15 67h17l-13 -60q84 -19 106 -74q12 -27 12 -58q0 -20 -4 -35zM206 368l63 298q-128 -18 -155 -146q-3 -15 -3 -29q0 -80 95 -123zM213 324l-67 -317q64 0 111 45.5t61 109.5q4 22 4 32q0 82 -109 130z" />
    <glyph glyph-name="percent" unicode="%" horiz-adv-x="724" 
d="M538 330q63 0 79 -49q8 -21 8 -45q0 -28 -9 -69q-18 -84 -48 -123q-36 -45 -102 -45q-65 0 -81 44q-6 18 -6 43q0 32 9 78q17 79 47 117q39 49 103 49zM469 13q28 0 49 11.5t34.5 34.5t21.5 46.5t15 58.5q10 43 10 76q0 76 -64 76q-88 0 -122 -152q-10 -53 -10 -80
q0 -10 2 -22q10 -49 64 -49zM261 702q61 0 79 -47q7 -18 7 -45q0 -30 -9 -70q-17 -84 -48 -122q-36 -47 -101 -47q-66 0 -82 46q-6 16 -6 42q0 32 10 78q16 79 47 118q38 47 103 47zM192 385q53 0 79 40t41 112q9 45 9 74q0 77 -63 77q-90 0 -122 -151q-11 -53 -11 -81
q0 -10 2 -22q12 -49 65 -49zM149 -16h-12l438 732h12z" />
    <glyph glyph-name="ampersand" unicode="&#x26;" horiz-adv-x="562" 
d="M390 624q3 16 3 30q0 33 -18 51t-52 18q-41 0 -70 -25t-38 -68q-4 -19 -4 -43q0 -65 39 -140q55 34 92.5 81t47.5 96zM390 121l46 -121h-36l-38 89q-85 -99 -198 -99q-72 0 -111 35.5t-39 102.5q0 29 7 60q15 69 69 133q48 47 133 104q-34 81 -38 102q-5 23 -5 43
q0 21 7 58q12 59 50.5 91.5t95.5 32.5q46 0 71.5 -22.5t25.5 -63.5q0 -18 -4 -34q-13 -62 -56 -114q-32 -39 -109 -92l113 -280q56 92 75 179h35q-9 -44 -34.5 -102t-59.5 -102zM350 113l-122 287q-82 -55 -115 -96q-44 -53 -58 -122q-5 -25 -5 -42q0 -55 32.5 -88t89.5 -33
q100 0 178 94z" />
    <glyph glyph-name="quotesingle" unicode="'" horiz-adv-x="164" 
d="M72 528h-22l42 198h22z" />
    <glyph glyph-name="parenleft" unicode="(" horiz-adv-x="241" 
d="M283 744h13q-149 -175 -209 -458q-28 -130 -28 -247q0 -135 39 -232h-12q-56 130 -56 282q0 96 22 196q56 264 231 459z" />
    <glyph glyph-name="parenright" unicode=")" horiz-adv-x="241" 
d="M-43 -194h-13q71 84 125.5 205t82.5 252q28 134 28 240q0 131 -41 254l5 -13h11q55 -135 55 -285q0 -87 -20 -181q-28 -135 -85 -250q-59 -121 -148 -222z" />
    <glyph glyph-name="asterisk" unicode="*" horiz-adv-x="347" 
d="M60 482l98 108l-101 39l7 13l105 -43l26 121h14l-26 -121l122 43l1 -16l-119 -38l50 -108l-13 -9l-53 113l-102 -112z" />
    <glyph glyph-name="plus" unicode="+" 
d="M142 0l47 222h-170l4 21h170l47 221h21l-47 -221h170l-4 -21h-170l-47 -222h-21z" />
    <glyph glyph-name="comma" unicode="," horiz-adv-x="188" 
d="M54 -134l4 15q30 16 37 65l12 54h-24l13 60h39q-21 -93 -24 -113q-8 -37 -21 -54.5t-36 -26.5z" />
    <glyph glyph-name="hyphen" unicode="-" horiz-adv-x="293" 
d="M259 299l-6 -28h-223l6 28h223z" />
    <glyph glyph-name="hyphen" unicode="&#xad;" horiz-adv-x="293" 
d="M259 299l-6 -28h-223l6 28h223z" />
    <glyph glyph-name="period" unicode="." horiz-adv-x="188" 
d="M120 58l-12 -58h-39l12 58h39z" />
    <glyph glyph-name="slash" unicode="/" horiz-adv-x="240" 
d="M-70 -94h-22l402 820h23z" />
    <glyph glyph-name="zero" unicode="0" 
d="M37 351q46 218 112 302q54 66 130 66t100 -66q14 -37 14 -95q0 -81 -27 -207q-26 -116 -47 -176q-32 -92 -74 -138q-49 -52 -122 -52q-77 0 -102 65q-12 33 -12 86q0 84 28 215zM71 351q-28 -128 -28 -210q0 -131 85 -131q68 0 116.5 82.5t86.5 258.5q28 131 28 212
q0 131 -85 131q-68 0 -116.5 -83t-86.5 -260z" />
    <glyph glyph-name="one" unicode="1" horiz-adv-x="401" 
d="M134 0l122 571h-155l5 23q91 0 118 18q52 35 76 108h24l-154 -720h-36z" />
    <glyph glyph-name="two" unicode="2" 
d="M-2 32h287l-7 -32h-322l9 38q16 79 58 119l39.5 36l43 37l32.5 27l61.5 54l40.5 35l11 10q86 80 107 184q5 23 5 41q0 49 -26 82t-74 33q-59 0 -101.5 -51.5t-55.5 -117.5h-32q17 81 70 137t131 56q59 0 91.5 -33.5t32.5 -94.5q0 -29 -7 -58q-14 -67 -69 -140
q-38 -49 -121 -120l-133 -110q-52 -43 -71 -132z" />
    <glyph glyph-name="three" unicode="3" 
d="M175 355h-28l6 25h5q76 0 126 42.5t67 122.5q5 28 5 49q0 46 -21.5 73.5t-67.5 27.5q-57 0 -97.5 -45.5t-51.5 -100.5h-28q13 62 59 116q53 56 125 56q75 0 102 -51q15 -28 15 -68q0 -30 -7 -62q-12 -58 -51.5 -104.5t-104.5 -66.5q37 -7 58 -20t26.5 -24t13.5 -36
q8 -24 8 -49q0 -20 -7 -57q-21 -96 -75 -147t-134 -51q-72 0 -105 38q-27 33 -27 88q0 25 6 55h31q-4 -19 -4 -43q0 -34 9 -58q20 -54 93 -54q70 0 117 56q39 45 54 117q6 29 6 53q0 47 -23 79q-33 39 -100 39z" />
    <glyph glyph-name="four" unicode="4" 
d="M-6 201l9 43l344 476h37l-105 -493h63l-6 -26h-63l-43 -201h-34l43 201h-245zM340 677l-321 -450h226z" />
    <glyph glyph-name="five" unicode="5" horiz-adv-x="403" 
d="M-15 149h34q-3 -15 -3 -33q0 -31 9 -55q25 -50 87 -50q77 0 128 74q40 60 58 145q10 44 10 83q0 31 -7 52q-20 64 -98 64q-36 0 -70.5 -21.5t-54.5 -51.5h-27l112 350h243l-7 -32h-215l-95 -285q23 30 51 45.5t43 17.5t39 2q84 0 109 -69q12 -30 12 -71q0 -42 -10 -86
q-22 -102 -75 -168q-61 -74 -151 -74q-128 0 -128 113q0 23 6 50z" />
    <glyph glyph-name="six" unicode="6" 
d="M220 419q-70 0 -118 -64q-34 -46 -52 -123q-11 -52 -11 -90q0 -23 5 -48q17 -84 90 -84q71 0 122 76q38 60 53 132q9 45 9 82q0 24 -5 47q-8 34 -33 53t-60 19zM132 -15q-52 0 -80.5 27.5t-37.5 85.5q-3 20 -3 45q0 67 21 169q26 118 48 181q36 105 85 160q57 66 132 66
q54 0 83.5 -27.5t29.5 -74.5q0 -18 -4 -34h-30q3 15 3 28q0 37 -23.5 60t-68.5 23q-50 0 -91 -46q-44 -51 -69 -118t-54 -187q65 101 166 101q81 0 104 -74q10 -33 10 -67q0 -31 -10 -81q-19 -93 -64 -155q-59 -82 -147 -82z" />
    <glyph glyph-name="seven" unicode="7" 
d="M418 673h-300l7 31h321l-8 -38q-52 -54 -126 -160q-45 -63 -99 -156q-114 -201 -145 -350h-34q32 150 139.5 339.5t244.5 333.5z" />
    <glyph glyph-name="eight" unicode="8" 
d="M205 366q-64 0 -107.5 -44.5t-61.5 -129.5q-9 -40 -9 -72q0 -29 7 -49q21 -60 94 -60q77 0 121 59q33 42 50 123q8 38 8 65q0 108 -102 108zM273 695q-56 0 -92 -43.5t-50 -109.5q-7 -38 -7 -59q0 -23 7 -44q19 -48 78 -48q54 0 92 44.5t51 106.5q7 35 7 58q0 95 -86 95z
M162 379h1q-69 23 -69 110q0 28 8 65q16 79 61.5 123t116.5 44q70 0 97 -48q15 -30 15 -69q0 -28 -5 -50q-32 -148 -136 -175q43 -12 60.5 -34t24.5 -54q5 -20 5 -39q0 -25 -8 -65q-22 -100 -69 -148q-52 -54 -140 -54q-86 0 -118 54q-16 30 -16 71q0 29 10 77q13 67 40 104
q13 21 24 34t36.5 28.5t61.5 25.5z" />
    <glyph glyph-name="nine" unicode="9" 
d="M273 694q-71 0 -121 -77q-33 -54 -50 -132q-10 -44 -10 -85q0 -18 4 -44q18 -72 91 -72q70 0 118 64q34 44 50 123q12 54 12 96q0 43 -13 75q-21 52 -81 52zM278 719q51 0 79 -26.5t36 -83.5q2 -24 2 -40q0 -69 -21 -172q-45 -210 -95 -298q-63 -114 -168 -114
q-52 0 -81.5 27.5t-29.5 73.5q0 18 4 34h30q-3 -15 -3 -28q0 -37 23.5 -59.5t68.5 -22.5q44 0 83 38.5t61 88.5q35 78 64 222q-35 -60 -74.5 -80t-85.5 -20q-80 0 -103 74q-10 30 -10 69q0 37 9 79q20 93 64 157q58 81 147 81z" />
    <glyph glyph-name="colon" unicode=":" horiz-adv-x="188" 
d="M167 494l-13 -58h-39l13 58h39zM74 58l-13 -58h-39l13 58h39z" />
    <glyph glyph-name="semicolon" unicode=";" horiz-adv-x="188" 
d="M8 -134l3 15q26 14 38 65l12 54h-24l12 60h39q-22 -106 -24 -113q-8 -37 -21 -54.5t-35 -26.5zM181 494l-13 -59h-39l13 59h39z" />
    <glyph glyph-name="less" unicode="&#x3c;" 
d="M335 -2l-319 224l5 21l414 222l-5 -23l-387 -209l297 -212z" />
    <glyph glyph-name="equal" unicode="=" 
d="M42 333h361l-4 -22h-361zM4 154h361l-4 -22h-361z" />
    <glyph glyph-name="greater" unicode="&#x3e;" 
d="M-33 -2l5 23l387 212l-297 209l5 23l320 -222l-5 -21z" />
    <glyph glyph-name="question" unicode="?" horiz-adv-x="347" 
d="M129 172h-25q13 60 36.5 101t77.5 101q44 44 72 84q32 46 43 100q5 25 5 43q0 45 -22.5 72t-64.5 27q-67 0 -106.5 -44t-53.5 -116h-31q14 80 64.5 133t126.5 53q63 0 95 -39q25 -33 25 -78q0 -21 -6 -47q-10 -47 -32 -87q-34 -55 -91 -112q-56 -57 -78 -94t-35 -97z
M113 58l-12 -58h-39l12 58h39z" />
    <glyph glyph-name="at" unicode="@" horiz-adv-x="746" 
d="M498 433q3 103 -74 103q-62 0 -118 -69t-78 -171q-5 -28 -5 -45q0 -80 67 -80q46 0 87.5 36.5t67.5 97.5zM417 233q-28 -44 -64 -68.5t-70 -24.5q-97 0 -97 100q0 28 7 59q24 113 94 190.5t144 77.5q79 0 83 -87l40 67h25l-112 -270q-20 -46 -22 -59q-5 -22 5.5 -34.5
t34.5 -12.5q59 0 119 62q87 90 116 227q8 36 8 76q0 102 -62 162.5t-172 60.5q-133 0 -243 -93q-155 -129 -199 -339q-11 -49 -11 -100q0 -119 67.5 -188t188.5 -69q135 0 269 95l6 -17q-136 -106 -277 -106q-151 0 -224 89q-66 78 -66 194q0 54 13 110q33 161 137 278
q150 175 348 175q132 0 199 -82q59 -70 59 -169q0 -37 -9 -78q-37 -170 -151 -264q-68 -54 -131 -54q-62 0 -62 47q0 10 3 22q1 2 2.5 10t3.5 13z" />
    <glyph glyph-name="A" unicode="A" horiz-adv-x="456" 
d="M300 705l-209 -444h230zM-61 0l344 726h42l39 -726h-35l-8 233h-242l-108 -233h-32z" />
    <glyph glyph-name="B" unicode="B" horiz-adv-x="456" 
d="M264 697h-98l-64 -302h104q73 0 115 31q57 37 77 128q5 25 5 41q0 53 -33 78q-37 24 -106 24zM96 366l-72 -337h117q78 0 125 36q56 43 77 138q5 21 5 47q0 116 -151 116h-101zM128 0h-144l154 726h157q79 0 116 -40q27 -32 27 -79q0 -23 -6 -50q-14 -67 -49.5 -110.5
t-117.5 -65.5q118 -16 118 -128q0 -25 -6 -51q-25 -119 -104 -167q-58 -35 -145 -35z" />
    <glyph glyph-name="C" unicode="C" horiz-adv-x="510" 
d="M384 227h35q-22 -99 -82 -170q-65 -75 -161 -75q-84 0 -117 55q-24 41 -24 113q0 21 1 32q1 70 29 202q33 151 84 240q72 120 191 120q87 0 122 -64q23 -40 23 -94q0 -28 -5 -48h-36q5 23 5 45q0 40 -13 70q-28 62 -104 62q-77 0 -133 -73q-61 -83 -102 -273
q-27 -124 -27 -205q0 -50 11 -81q28 -72 108 -72q83 0 138 81q42 60 57 135z" />
    <glyph glyph-name="D" unicode="D" horiz-adv-x="510" 
d="M176 697l-142 -668h103q67 0 107 17q76 35 126 146q29 68 51 172q26 118 26 169q2 105 -60 145q-31 19 -108 19h-103zM121 0h-128l154 726h115q95 0 134 -18q36 -14 56 -49q27 -45 27 -134q0 -54 -11 -104l-7 -34q-35 -166 -78 -242q-48 -88 -112 -119q-54 -26 -150 -26z
" />
    <glyph glyph-name="E" unicode="E" 
d="M299 29l-6 -29h-305l154 726h300l-6 -29h-266l-64 -302h242l-6 -29h-242l-72 -337h271z" />
    <glyph glyph-name="F" unicode="F" 
d="M102 366l-78 -366h-34l154 726h305l-6 -29h-271l-64 -302h242l-6 -29h-242z" />
    <glyph glyph-name="G" unicode="G" horiz-adv-x="509" 
d="M400 317h-162l6 28h191l-73 -345h-24l16 117q-53 -74 -99.5 -104.5t-98.5 -30.5q-83 0 -115 61q-23 42 -23 119q0 5 0.5 14.5t0.5 15.5q4 71 28 185q23 107 47 167q36 91 90 142q59 58 149 58q68 0 104.5 -40.5t36.5 -105.5q0 -21 -5 -49h-35q1 9 1 26q0 52 -14 81
q-26 59 -98 59q-82 0 -139 -68q-61 -78 -105 -284q-26 -119 -26 -188q0 -16 1 -24q8 -140 113 -140q45 0 81 27t80 80q40 50 72 199z" />
    <glyph glyph-name="H" unicode="H" horiz-adv-x="510" 
d="M104 375l-80 -375h-36l154 726h36l-68 -322h308l68 322h36l-154 -726h-36l80 375h-308z" />
    <glyph glyph-name="I" unicode="I" horiz-adv-x="188" 
d="M189 726l-154 -726h-35l154 726h35z" />
    <glyph glyph-name="J" unicode="J" horiz-adv-x="348" 
d="M-32 152l8 38h34v-1q-17 -80 -12 -115q4 -30 24.5 -47t53.5 -17q55 0 82 36t42 103l122 577h34l-123 -581q-18 -82 -54 -120q-41 -45 -115 -45q-69 0 -91 51q-12 25 -12 61q0 22 7 60z" />
    <glyph glyph-name="K" unicode="K" horiz-adv-x="456" 
d="M82 277l-59 -277h-34l154 726h34l-86 -407l371 407h37l-263 -289l126 -437h-37l-117 408z" />
    <glyph glyph-name="L" unicode="L" horiz-adv-x="401" 
d="M304 29l-6 -29h-303l154 726h34l-148 -697h269z" />
    <glyph glyph-name="M" unicode="M" horiz-adv-x="672" 
d="M244 0l-83 673l-17 -129l-115 -544h-34l154 726h35l84 -687l375 687h35l-154 -726h-34l115 544l39 129l-369 -673h-31z" />
    <glyph glyph-name="N" unicode="N" horiz-adv-x="510" 
d="M140 726h37l174 -678l14 88l125 590h34l-154 -726h-37l-174 678l-14 -88l-125 -590h-34z" />
    <glyph glyph-name="O" unicode="O" horiz-adv-x="510" 
d="M174 -18q-94 0 -126 67q-19 41 -19 108q0 81 27 207q47 217 124 308q63 72 156 72q125 0 142 -121q4 -20 4 -54q0 -79 -27 -205q-23 -109 -50 -186q-41 -98 -86 -140q-57 -56 -145 -56zM180 11q102 0 163 111q42 75 77 242q26 118 26 197q0 22 -1 32q-5 59 -35 90.5
t-80 31.5q-102 0 -164 -117q-39 -70 -75 -234q-26 -128 -26 -205q0 -51 10 -78q25 -70 105 -70z" />
    <glyph glyph-name="P" unicode="P" horiz-adv-x="456" 
d="M103 341l-72 -341h-34l154 726h150q87 0 129 -40q32 -35 32 -90q0 -28 -7 -59q-42 -196 -230 -196h-122zM285 697h-106l-70 -327h96q88 0 137 32q58 39 78 131q6 29 6 51q0 113 -141 113z" />
    <glyph glyph-name="Q" unicode="Q" horiz-adv-x="509" 
d="M291 51l-63 63l22 23l62 -64q42 54 64.5 120.5t44.5 169.5q26 118 26 199q0 29 -2 41q-14 111 -113 111q-101 0 -164 -116q-41 -74 -75 -235q-26 -121 -26 -205q0 -47 9 -76q26 -71 106 -71q55 0 109 40zM333 51l64 -68l-20 -20l-66 67q-57 -49 -135 -49q-87 0 -121 61
q-25 45 -25 121q0 4 0.5 12.5t0.5 13.5q5 74 26 174q21 103 49 175q37 93 89 145q59 60 143 60q87 0 120 -60q24 -41 24 -118q0 -5 -0.5 -14t-0.5 -13q-3 -69 -25 -175q-29 -132 -42 -171q-30 -82 -81 -141z" />
    <glyph glyph-name="R" unicode="R" horiz-adv-x="456" 
d="M94 356l-76 -356h-34l154 726h156q87 0 121 -38q27 -28 27 -80q0 -30 -7 -62q-14 -67 -53 -116t-96 -60q38 -15 52 -31t18 -42q3 -12 3 -29q0 -29 -11 -84q-19 -92 -19 -132q0 -30 7 -52h-39q-4 17 -4 43q0 53 24 166q6 25 6 48q0 99 -110 99h-119zM166 697l-66 -312h125
q62 0 103 31q53 40 72 127q7 35 7 54q0 52 -32.5 76t-99.5 24h-109z" />
    <glyph glyph-name="S" unicode="S" horiz-adv-x="456" 
d="M414 573q4 24 4 34q0 48 -29.5 78t-83.5 30q-74 0 -126.5 -60.5t-52.5 -144.5q0 -55 62 -93l141 -77q61 -40 61 -103q0 -113 -70.5 -184t-173.5 -71q-73 0 -111 38.5t-38 105.5q0 28 6 59h35q-5 -27 -5 -49q0 -42 14 -67q24 -58 104 -58q81 0 140.5 60.5t59.5 147.5
q0 52 -33 82q-2 3 -51 30l-102 57q-41 24 -57.5 49t-16.5 65q0 107 65 174.5t156 67.5q67 0 103 -34.5t36 -92.5q0 -19 -5 -44h-32z" />
    <glyph glyph-name="T" unicode="T" 
d="M108 0l148 697h-165l6 29h364l-6 -29h-165l-148 -697h-34z" />
    <glyph glyph-name="U" unicode="U" horiz-adv-x="510" 
d="M34 184l115 542h36l-113 -535q-10 -43 -10 -79q0 -34 10 -51q23 -51 107 -51q86 0 135 55q39 45 57 133l112 528h36l-108 -511q-25 -116 -75 -172q-58 -63 -161 -63q-78 0 -114 31t-36 97q0 32 9 76z" />
    <glyph glyph-name="V" unicode="V" horiz-adv-x="456" 
d="M172 0h-42l-36 726h38l23 -705l329 705h33z" />
    <glyph glyph-name="W" unicode="W" horiz-adv-x="672" 
d="M390 726h42l-14 -702l279 702h32l-295 -726h-42l15 705l-286 -705h-42l18 726h35l-27 -702z" />
    <glyph glyph-name="X" unicode="X" horiz-adv-x="456" 
d="M-51 0l261 375l-98 351h39l85 -322l225 322h38l-248 -351l102 -375h-37l-92 347l-239 -347h-36z" />
    <glyph glyph-name="Y" unicode="Y" horiz-adv-x="456" 
d="M142 726l81 -381l249 381h36l-274 -417l-66 -309h-35l66 309l-96 417h39z" />
    <glyph glyph-name="Z" unicode="Z" 
d="M298 29l-6 -29h-335l9 43l443 654h-291l6 29h322l-8 -39l-446 -658h306z" />
    <glyph glyph-name="bracketleft" unicode="[" horiz-adv-x="241" 
d="M14 -87h94l-4 -17h-122l180 846h119l-4 -18h-91z" />
    <glyph glyph-name="backslash" unicode="\" horiz-adv-x="188" 
d="M144 0h-23l-77 726h23z" />
    <glyph glyph-name="bracketright" unicode="]" horiz-adv-x="241" 
d="M260 742l-180 -846h-122l4 17h93l172 811h-91l4 18h120z" />
    <glyph glyph-name="asciicircum" unicode="^" 
d="M28 341l204 384h19l40 -384h-16l-38 370l-193 -370h-16z" />
    <glyph glyph-name="underscore" unicode="_" horiz-adv-x="456" 
d="M459 -93l-6 -28h-456l6 28h456z" />
    <glyph glyph-name="grave" unicode="`" horiz-adv-x="294" 
d="M114 721l52 -111h-20l-74 111h42z" />
    <glyph glyph-name="a" unicode="a" horiz-adv-x="364" 
d="M288 311l-139 -60q-90 -38 -109 -127q-11 -50 3.5 -81t54.5 -31q34 0 64 17t48.5 42t30.5 48t15 40zM88 419q27 125 156 125q64 0 86 -32t7 -105l-67 -312q-9 -29 -4.5 -51t28.5 -21l-5 -22q-9 -1 -22 -1q-19 0 -27.5 21.5t0.5 63.5q-19 -46 -59 -70.5t-91 -24.5
q-52 0 -71.5 38.5t-6.5 95.5q10 51 37.5 86t79.5 57l114 47q50 21 68 103q23 105 -74 105q-55 0 -81.5 -24.5t-39.5 -78.5h-28z" />
    <glyph glyph-name="b" unicode="b" horiz-adv-x="403" 
d="M70 263q-21 -101 -21 -138q2 -53 26.5 -83t65.5 -30q86 0 128 105q26 65 45 154q21 100 21 140q0 34 -10 61q-19 50 -73 50q-42 0 -84.5 -34.5t-59.5 -89.5q-25 -73 -38 -135zM141 726h28l-58 -275q57 93 147 93q69 0 90 -53q13 -32 13 -78q0 -55 -18 -141
q-36 -170 -94 -234q-45 -48 -112 -48q-37 0 -68 22.5t-37 73.5l-18 -86h-27z" />
    <glyph glyph-name="c" unicode="c" horiz-adv-x="360" 
d="M266 159h29q-13 -67 -53 -114q-45 -55 -117 -55q-48 0 -74 22t-34 69q-2 20 -2 33q0 58 21 156q24 116 62 184q53 90 143 90q64 0 88 -48q15 -30 15 -66q0 -11 -4 -35h-27q3 15 3 30q0 41 -21.5 69t-62.5 28q-72 0 -117 -89q-28 -54 -53 -173q-22 -100 -19 -149
q2 -47 25.5 -73t62.5 -26q54 0 84.5 40.5t50.5 106.5z" />
    <glyph glyph-name="d" unicode="d" 
d="M294 263q4 20 20 135q6 55 -22 89.5t-70 34.5q-54 0 -95 -50q-20 -25 -34 -58.5t-20.5 -59.5t-18.5 -83q-19 -87 -21 -154q-1 -52 20.5 -78.5t61.5 -26.5q42 0 80 30.5t60 82.5q19 41 39 138zM419 726l-154 -726h-27l18 86q-28 -51 -68 -73.5t-77 -22.5q-67 0 -92 48
q-13 27 -13 80q0 62 19 154q31 149 87 219q44 53 114 53q89 0 106 -93l58 275h29z" />
    <glyph glyph-name="e" unicode="e" horiz-adv-x="366" 
d="M332 327l-9 -42h-251l-11 -49q-15 -74 -15 -117q0 -15 1 -22q4 -40 25.5 -62.5t56.5 -22.5q57 0 91.5 42.5t46.5 101.5h28q-14 -68 -59 -117t-113 -49q-88 0 -101 92q-2 10 -2 34q0 60 20 149q24 119 58 183q54 96 141 96q74 0 96 -69q8 -27 8 -58q0 -37 -11 -90zM76 306
h223q16 71 16 117q0 15 -1 22q-4 37 -25.5 57t-55.5 20q-60 0 -99 -62t-58 -154z" />
    <glyph glyph-name="f" unicode="f" horiz-adv-x="188" 
d="M26 0h-28l107 504h-57l5 23h57l16 75q16 76 35 98q26 30 80 27h8l-5 -22h-1q-37 2 -55.5 -14t-27.5 -58l-22 -106h67l-5 -23h-67z" />
    <glyph glyph-name="g" unicode="g" 
d="M333 271q21 95 21 138q-1 52 -26 82.5t-66 30.5q-86 0 -128 -105q-26 -67 -44 -154q-22 -106 -22 -142q0 -32 10 -59q19 -50 73 -50q42 0 85 34.5t60 89.5q27 88 37 135zM416 527l-113 -532q-20 -92 -63 -139q-46 -49 -129 -49q-61 0 -90 26q-33 30 -24 70h29
q-6 -29 22 -51.5t68 -22.5q87 0 126 68q21 41 33 100l18 86q-56 -93 -147 -93q-70 0 -91 53q-13 32 -13 78q0 55 18 141q36 170 94 234q45 48 112 48q37 0 68 -22.5t37 -73.5l17 79h28z" />
    <glyph glyph-name="h" unicode="h" 
d="M93 383l-81 -383h-28l154 726h28l-57 -271q27 41 69.5 63t78.5 22q74 0 92 -42q8 -18 8 -38q0 -25 -11 -72l-82 -388h-28l80 376q9 45 9 68q0 36 -17.5 55t-58.5 19q-48 0 -96 -39t-60 -96z" />
    <glyph glyph-name="i" unicode="i" horiz-adv-x="188" 
d="M143 527l-112 -527h-28l112 527h28zM185 726l-15 -73h-28l15 73h28z" />
    <glyph glyph-name="j" unicode="j" horiz-adv-x="188" 
d="M-75 -193l5 25q38 0 55.5 21t28.5 74l127 596h28l-130 -612q-8 -36 -16 -54.5t-26 -31.5q-26 -18 -72 -18zM211 722l-15 -73h-28l15 73h28z" />
    <glyph glyph-name="k" unicode="k" horiz-adv-x="348" 
d="M52 193l-41 -193h-28l154 726h28l-105 -494l258 295h36l-175 -191l71 -336h-28l-71 304z" />
    <glyph glyph-name="l" unicode="l" horiz-adv-x="188" 
d="M185 726l-154 -726h-28l154 726h28z" />
    <glyph glyph-name="m" unicode="m" horiz-adv-x="619" 
d="M111 392l-84 -392h-28l112 527h28l-13 -62q57 79 146 79q80 0 85 -88q22 40 68.5 64t86.5 24q59 0 78 -37q8 -19 8 -46q0 -23 -6 -54l-87 -407h-28l88 413q4 16 4 35q0 33 -17 53t-52 20q-52 0 -95.5 -37t-54.5 -91l-84 -393h-28l83 389q8 37 8 61q0 71 -74 71
q-42 0 -84 -33q-48 -37 -60 -96z" />
    <glyph glyph-name="n" unicode="n" 
d="M116 391l-83 -391h-28l112 527h28l-13 -64q54 81 154 81q51 0 73 -26q18 -20 18 -50q0 -14 -5 -39l-91 -429h-28l83 391q9 43 9 64q0 33 -17 49.5t-57 16.5q-55 0 -94 -33q-49 -41 -61 -97z" />
    <glyph glyph-name="o" unicode="o" horiz-adv-x="387" 
d="M133 -10q-69 0 -96 53q-16 37 -16 93t16 132q24 116 69 186q55 90 148 90q70 0 96 -53q16 -37 16 -92q0 -57 -16 -131q-24 -118 -69 -188q-55 -90 -148 -90zM137 12q83 0 133 100q28 52 49 156q16 74 16 129q0 19 -1 27q-4 46 -26.5 72t-60.5 26q-75 0 -127 -98
q-31 -58 -52 -156q-22 -107 -19 -156q2 -48 25.5 -74t62.5 -26z" />
    <glyph glyph-name="p" unicode="p" horiz-adv-x="395" 
d="M103 271q-11 -50 -20 -135q-6 -55 22 -89.5t70 -34.5q55 0 94 50q20 25 34.5 58.5t21 59.5t18.5 83q19 87 21 154q1 52 -20.5 78.5t-62.5 26.5t-79 -30.5t-61 -82.5q-18 -42 -38 -138zM-22 -187l152 714h27l-17 -79q28 51 68.5 73.5t77.5 22.5q67 0 92 -48q13 -27 13 -80
q0 -62 -19 -154q-33 -153 -88 -219q-43 -53 -113 -53q-89 0 -106 93l-58 -270h-29z" />
    <glyph glyph-name="q" unicode="q" horiz-adv-x="395" 
d="M347 271q21 101 20 138q-1 52 -26 82.5t-66 30.5q-85 0 -127 -105q-26 -65 -45 -154q-22 -106 -22 -141q0 -33 10 -60q20 -50 74 -50q42 0 84.5 34.5t59.5 89.5q28 90 38 135zM276 -187h-29l58 270q-57 -93 -146 -93q-69 0 -91 53q-13 32 -13 78q0 57 19 141
q36 170 94 234q45 48 112 48q37 0 67.5 -22.5t36.5 -73.5l17 79h27z" />
    <glyph glyph-name="r" unicode="r" horiz-adv-x="240" 
d="M111 353l-75 -353h-28l112 527h26l-18 -85q59 102 150 102l-7 -33q-58 0 -101 -43t-59 -115z" />
    <glyph glyph-name="s" unicode="s" horiz-adv-x="362" 
d="M166 320l78 -47q19 -14 27 -25q24 -28 24 -73q0 -86 -49 -135.5t-122 -49.5q-119 0 -119 93q0 18 5 43h27q-3 -14 -3 -26q0 -39 25 -63.5t71 -24.5q55 0 95 46.5t40 105.5q0 55 -40 79l-85 53q-62 39 -62 89q0 74 43.5 116.5t110.5 42.5q53 0 80.5 -25t27.5 -68
q0 -18 -4 -34h-27q2 14 2 21q0 35 -23 59.5t-63 24.5q-46 0 -81 -33.5t-36 -86.5q-1 -29 13.5 -46t44.5 -36z" />
    <glyph glyph-name="t" unicode="t" horiz-adv-x="187" 
d="M98 15l-5 -22q-13 -3 -38 -3q-52 0 -52 45q0 11 3 26l94 444h-49l5 22h49l34 162h27l-34 -162h75l-5 -22h-75l-91 -431q-4 -16 -4 -31q0 -19 10.5 -25.5t34.5 -6.5q3 0 12 2z" />
    <glyph glyph-name="u" unicode="u" 
d="M284 0h-27l18 88q-26 -43 -41 -58q-45 -40 -121 -40q-40 0 -64 22.5t-24 68.5q0 25 5 46l85 400h28l-85 -402q-5 -27 -5 -42q0 -71 77 -71q54 0 92 32q26 23 44 56t23 56l79 371h28z" />
    <glyph glyph-name="v" unicode="v" horiz-adv-x="347" 
d="M76 527h31l18 -493l231 493h28l-246 -527h-39z" />
    <glyph glyph-name="w" unicode="w" horiz-adv-x="510" 
d="M70 527h27l-8 -502l203 502h38l-11 -502l207 502h26l-222 -527h-35l11 498l-202 -498h-39z" />
    <glyph glyph-name="x" unicode="x" horiz-adv-x="347" 
d="M270 0h-31l-69 255l-176 -255h-29l192 276l-70 251h30l62 -233l162 233h32l-179 -251z" />
    <glyph glyph-name="y" unicode="y" horiz-adv-x="347" 
d="M-50 -191l5 24q14 -2 16 -2q14 -1 26.5 1t23.5 8.5t19.5 12t17 18t14 19.5t12.5 23t10.5 22.5t10.5 24.5l9 23l-18 544h30l16 -493l234 493h28l-295 -618q-25 -55 -56.5 -78.5t-77.5 -23.5q-12 0 -25 2z" />
    <glyph glyph-name="z" unicode="z" horiz-adv-x="293" 
d="M225 23l-5 -23h-263l5 23l343 481h-221l5 23h249l-5 -23l-343 -481h235z" />
    <glyph glyph-name="braceleft" unicode="{" horiz-adv-x="312" 
d="M385 783l-7 -35q-72 0 -100.5 -28t-45.5 -107l-25 -119q-18 -81 -45 -120.5t-88 -57.5q37 -12 53 -34.5t16 -58.5q0 -27 -12 -85l-25 -119q-10 -45 -10 -68q0 -37 22 -52t76 -15l-7 -34q-72 0 -101 21t-29 72q0 33 13 95l25 117q8 37 8 61q0 44 -25.5 63.5t-81.5 19.5
l8 34h3q70 0 104.5 33t51.5 111l25 117q12 56 25 89t35 57t54.5 33.5t82.5 9.5z" />
    <glyph glyph-name="bar" unicode="|" horiz-adv-x="188" 
d="M28 0h-22l154 726h22z" />
    <glyph glyph-name="braceright" unicode="}" horiz-adv-x="312" 
d="M99 783q72 0 101 -21t29 -72q0 -34 -13 -96l-25 -117q-8 -37 -8 -61q0 -44 24.5 -63.5t79.5 -19.5h3l-8 -34q-72 0 -107 -32.5t-52 -111.5l-25 -117q-23 -108 -62 -148t-135 -40l7 34q72 0 100.5 28t45.5 107l25 119q18 81 45 120.5t88 57.5q-37 12 -53 34.5t-16 58.5
q0 27 12 85l25 119q10 45 10 68q0 37 -22 52t-76 15z" />
    <glyph glyph-name="asciitilde" unicode="~" 
d="M28 191l-9 12q53 69 106 69q21 0 79.5 -25.5t81.5 -25.5q48 0 90 50l8 -11q-18 -25 -48 -44.5t-56 -19.5q-31 0 -86 25t-74 25q-48 0 -92 -55z" />
    <glyph glyph-name="currency" unicode="&#xa4;" 
d="M250 478q64 0 120 -48l43 36l20 -27l-44 -37q21 -48 21 -95q0 -49 -17.5 -87t-61.5 -93l28 -36l-32 -28l-28 37q-73 -49 -147 -49q-63 0 -117 49l-45 -37l-20 28l44 36q-22 50 -22 90q0 54 17.5 91.5t62.5 93.5l-28 37l32 27l29 -36q72 48 145 48zM243 442
q-82 1 -149 -64t-67 -151q0 -59 38.5 -99.5t96.5 -40.5q80 0 147 65t67 150q0 59 -37.5 99.5t-95.5 40.5z" />
    <glyph glyph-name="brokenbar" unicode="&#xa6;" horiz-adv-x="188" 
d="M28 0h-22l58 272h22zM102 454l58 272h22l-58 -272h-22z" />
    <glyph glyph-name="section" unicode="&#xa7;" 
d="M205 498l92 -79q74 -60 74 -131q0 -54 -32 -95t-102 -81q39 -45 39 -91q0 -74 -49 -120t-119 -46q-54 0 -82 28.5t-28 76.5q0 21 4 40h30q-4 -17 -4 -38q0 -40 21 -63t63 -23q59 0 96 41.5t37 97.5q0 51 -42 88l-122 119q-49 49 -49 94q0 60 30 95.5t105 81.5
q-37 55 -37 94q0 71 50 116t117 45q54 0 83 -29.5t29 -77.5q0 -10 -4 -34h-31q3 15 3 30q0 39 -21 64.5t-63 25.5q-58 0 -95.5 -38.5t-37.5 -101.5q0 -53 45 -89zM295 382l-107 94q-59 -23 -92.5 -64.5t-33.5 -96.5q0 -38 34 -70l124 -116q121 54 121 162q0 51 -46 91z" />
    <glyph glyph-name="copyright" unicode="&#xa9;" horiz-adv-x="746" 
d="M293 -18q-129 0 -207.5 84t-78.5 213q0 118 64 226.5t168 174t216 65.5q127 0 205.5 -84t78.5 -212q0 -89 -38 -175.5t-99.5 -150t-143 -102.5t-165.5 -39zM297 0q104 0 203 63t160 166t61 212q0 121 -75 203t-195 82q-105 0 -203.5 -62t-160 -164.5t-61.5 -212.5
q0 -122 75.5 -204.5t195.5 -82.5zM502 277h25q-16 -52 -68 -88t-114 -36q-71 0 -111 41.5t-40 112.5q0 117 69.5 195t169.5 78q65 0 100 -33t32 -86h-24q2 42 -29.5 72.5t-80.5 30.5q-85 0 -147 -74t-62 -173q0 -64 33.5 -105t93.5 -41q49 0 94 32t59 74z" />
    <glyph glyph-name="guillemotleft" unicode="&#xab;" horiz-adv-x="456" 
d="M171 171l-6 -25l-101 98l6 29l143 97l-5 -22l-126 -90zM351 171l-6 -25l-101 98l6 29l143 97l-5 -22l-126 -90z" />
    <glyph glyph-name="logicalnot" unicode="&#xac;" 
d="M42 312l5 21h361l-51 -239h-21l46 218h-340z" />
    <glyph glyph-name="registered" unicode="&#xae;" horiz-adv-x="746" 
d="M451 736q149 0 233 -104q59 -74 59 -177q0 -115 -59 -216t-162 -161.5t-224 -60.5q-124 0 -207.5 82t-83.5 205q0 109 62.5 209.5t166 161.5t215.5 61zM444 704q-102 0 -196.5 -57t-151 -148t-56.5 -187q0 -112 76 -187.5t188 -75.5q99 0 192 51.5t153.5 144.5t60.5 202
q0 92 -55 161q-75 96 -211 96zM277 377l-43 -202h-26l89 417h121q121 0 121 -75q0 -48 -28 -85t-77 -43q34 -13 44 -27t10 -39q0 -13 -5 -43q-9 -42 -9 -65t8 -40h-30q-5 17 -5 35q0 30 12 85q2 7 2 21q0 33 -26 49q-22 13 -65 12h-93zM282 401h98q132 0 132 109
q0 32 -26 45.5t-81 13.5l-87 -1z" />
    <glyph glyph-name="degree" unicode="&#xb0;" horiz-adv-x="354" 
d="M308 608q-13 -59 -58.5 -97.5t-101.5 -38.5q-48 0 -77 29t-29 75q0 68 50.5 118t113.5 50q48 0 77 -29t29 -75q0 -10 -4 -32zM286 608q3 12 3 24q0 39 -25 64.5t-64 25.5q-49 0 -92 -43t-43 -95q0 -38 25 -64t63 -26q44 0 83.5 34t49.5 80z" />
    <glyph glyph-name="plusminus" unicode="&#xb1;" 
d="M163 101l36 170h-170l5 24h170l36 169h21l-36 -169h170l-5 -24h-170l-36 -170h-21zM-24 22h361l-4 -22h-361z" />
    <glyph glyph-name="mu" unicode="&#xb5;" 
d="M305 137l83 390h28l-112 -527h-28l15 73q-51 -91 -160 -91q-58 0 -72 60l-50 -235h-28l154 720h28l-85 -398q-5 -23 -5 -40q0 -39 20.5 -60t56.5 -21q48 0 96.5 40t58.5 89z" />
    <glyph glyph-name="mu" unicode="&#x3bc;" 
d="M305 137l83 390h28l-112 -527h-28l15 73q-51 -91 -160 -91q-58 0 -72 60l-50 -235h-28l154 720h28l-85 -398q-5 -23 -5 -40q0 -39 20.5 -60t56.5 -21q48 0 96.5 40t58.5 89z" />
    <glyph glyph-name="paragraph" unicode="&#xb6;" horiz-adv-x="517" 
d="M160 -116h-27l103 486q-65 0 -101.5 36t-36.5 95q0 111 65 168t164 57h162l-178 -842h-27l170 804h-124z" />
    <glyph glyph-name="periodcentered" unicode="&#xb7;" horiz-adv-x="188" 
d="M120 261l-12 -58h-39l12 58h39z" />
    <glyph glyph-name="periodcentered" unicode="&#x2219;" horiz-adv-x="188" 
d="M120 261l-12 -58h-39l12 58h39z" />
    <glyph glyph-name="guillemotright" unicode="&#xbb;" horiz-adv-x="456" 
d="M243 146l6 25l125 87l-88 90l5 22l101 -97l-6 -29zM63 146l6 25l125 87l-88 90l5 22l101 -97l-6 -29z" />
    <glyph glyph-name="afii10023" unicode="&#x401;" 
d="M281 30l-6 -30h-305l154 726h300l-6 -29h-266l-64 -301h242l-6 -29h-242l-72 -337h271zM222 822h-34l15 73h34zM375 822h-34l15 73h34z" />
    <glyph glyph-name="afii10051" unicode="&#x402;" horiz-adv-x="564" 
d="M321 -18q-35 0 -84 18l19 30q31 -18 77 -18q51 0 87 40t49.5 90.5t13.5 103.5q0 101 -106 101q-63 0 -165 -25l-68 -322h-34l148 697h-165l6 29h382l-6 -29h-183l-74 -344q84 23 152 23q79 0 113 -31t34 -92q0 -101 -42 -179q-50 -92 -154 -92z" />
    <glyph glyph-name="afii10052" unicode="&#x403;" horiz-adv-x="401" 
d="M430 695h-269l-148 -695h-34l154 726h303zM373 874h47l-120 -110h-24z" />
    <glyph glyph-name="afii10053" unicode="&#x404;" horiz-adv-x="510" 
d="M384 227h35q-21 -103 -85 -174t-158 -71q-45 0 -74 14t-43.5 43t-19 62t-3.5 81q1 70 29 202q33 151 84 240q72 120 191 120q70 0 107.5 -44t37.5 -114q0 -28 -5 -48h-36q5 23 5 45q0 59 -30 95.5t-87 36.5q-94 0 -154 -103q-44 -70 -75 -217h193l-6 -29h-193
q-28 -128 -28 -201q0 -154 120 -154q71 0 125.5 66.5t69.5 149.5z" />
    <glyph glyph-name="afii10054" unicode="&#x405;" horiz-adv-x="456" 
d="M414 573q4 24 4 34q0 48 -29.5 78t-83.5 30q-74 0 -126.5 -60.5t-52.5 -144.5q0 -55 62 -93l141 -77q61 -40 61 -103q0 -113 -70.5 -184t-173.5 -71q-73 0 -111 38.5t-38 105.5q0 28 6 59h35q-5 -27 -5 -49q0 -42 14 -67q24 -58 104 -58q81 0 140.5 60.5t59.5 147.5
q0 52 -33 82q-2 3 -51 30l-102 57q-41 24 -57.5 49t-16.5 65q0 107 65 174.5t156 67.5q67 0 103 -34.5t36 -92.5q0 -19 -5 -44h-32z" />
    <glyph glyph-name="afii10055" unicode="&#x406;" horiz-adv-x="188" 
d="M189 726l-154 -726h-35l154 726h35z" />
    <glyph glyph-name="afii10056" unicode="&#x407;" horiz-adv-x="188" 
d="M170 726l-154 -726h-35l154 726h35zM146 818h-30l18 86h30zM227 818h-29l18 86h29z" />
    <glyph glyph-name="afii10057" unicode="&#x408;" horiz-adv-x="348" 
d="M-32 152l8 38h34v-1q-17 -80 -12 -115q4 -30 24.5 -47t53.5 -17q55 0 82 36t42 103l122 577h34l-123 -581q-18 -82 -54 -120q-41 -45 -115 -45q-69 0 -91 51q-12 25 -12 61q0 22 7 60z" />
    <glyph glyph-name="afii10058" unicode="&#x409;" horiz-adv-x="810" 
d="M207 726h339l-70 -331h122q154 0 154 -132q0 -27 -8 -64q-22 -102 -85 -154q-54 -45 -139 -45h-162l148 697h-271l-77 -361q-16 -78 -30.5 -129.5t-36.5 -105.5t-51.5 -81t-66.5 -27q-29 0 -39 2l6 30q12 -3 30 -3q47 0 85 84t74 252zM469 366l-71 -337h110
q81 0 133 43.5t69 124.5q6 29 6 53q0 54 -27 81q-36 35 -124 35h-96z" />
    <glyph glyph-name="afii10059" unicode="&#x40a;" horiz-adv-x="778" 
d="M104 375l-80 -375h-34l154 726h34l-68 -322h308l68 322h34l-68 -322h123q151 0 151 -138q0 -29 -8 -67q-22 -102 -85 -154q-54 -45 -139 -45h-162l80 375h-308zM446 375l-74 -346h110q81 0 133 43.5t69 124.5q7 31 7 60q0 118 -147 118h-98z" />
    <glyph glyph-name="afii10060" unicode="&#x40b;" horiz-adv-x="600" 
d="M457 0h-34l47 223q5 27 5 43q0 81 -100 81q-90 0 -163 -18l-70 -329h-34l148 697h-165l6 29h382l-6 -29h-183l-72 -337q75 16 144 16q77 0 112.5 -26t35.5 -80q0 -20 -6 -49z" />
    <glyph glyph-name="afii10061" unicode="&#x40c;" horiz-adv-x="456" 
d="M68 277l-59 -277h-34l155 726h34l-87 -407l372 407h37l-264 -289l126 -437h-37l-117 408zM366 854h47l-121 -110h-24z" />
    <glyph glyph-name="afii10062" unicode="&#x40e;" horiz-adv-x="492" 
d="M546 726l-355 -641q-52 -95 -116 -95q-29 0 -38 3l7 30q10 -2 25 -2q55 0 93 69l29 51l-87 585h37l75 -546l292 546h38zM240 904h29q-2 -36 16.5 -54.5t58.5 -18.5q82 0 111 73h29q-14 -47 -55 -75t-93 -28q-49 0 -75 28t-21 75z" />
    <glyph glyph-name="afii10145" unicode="&#x40f;" horiz-adv-x="524" 
d="M193 726l-148 -696h311l148 696h34l-154 -726h-173l-34 -161h-32l34 161h-174l154 726h34z" />
    <glyph glyph-name="afii10017" unicode="&#x410;" horiz-adv-x="456" 
d="M300 705l-209 -444h230zM-61 0l344 726h42l39 -726h-35l-8 233h-242l-108 -233h-32z" />
    <glyph glyph-name="afii10018" unicode="&#x411;" horiz-adv-x="456" 
d="M-3 0l154 726h309l-6 -30h-275l-64 -301h122q154 0 154 -132q0 -65 -26.5 -125t-66.5 -93q-54 -45 -139 -45h-162zM205 366h-96l-72 -337h110q92 0 150 60t58 161q0 54 -27 81q-36 35 -123 35z" />
    <glyph glyph-name="afii10019" unicode="&#x412;" horiz-adv-x="456" 
d="M264 697h-98l-64 -302h91q87 0 148.5 54t61.5 146q0 53 -33 78q-37 24 -106 24zM96 366l-72 -337h117q78 0 125 36q35 27 58.5 78.5t23.5 106.5q0 116 -151 116h-101zM128 0h-144l154 726h157q79 0 116 -40q27 -32 27 -79q0 -111 -68 -172q-34 -33 -105 -54
q118 -16 118 -128q0 -70 -32 -130t-78 -88q-58 -35 -145 -35z" />
    <glyph glyph-name="afii10020" unicode="&#x413;" horiz-adv-x="401" 
d="M446 695h-269l-148 -695h-34l154 726h303z" />
    <glyph glyph-name="afii10021" unicode="&#x414;" horiz-adv-x="571" 
d="M-23 30h39q84 107 115.5 191.5t67.5 254.5l53 250h325l-148 -696h52l-40 -191h-32l34 161h-440l-34 -161h-32zM51 30h344l142 666h-257l-51 -239q-58 -276 -178 -427z" />
    <glyph glyph-name="afii10022" unicode="&#x415;" 
d="M299 29l-6 -29h-305l154 726h300l-6 -29h-266l-64 -302h242l-6 -29h-242l-72 -337h271z" />
    <glyph glyph-name="afii10024" unicode="&#x416;" horiz-adv-x="743" 
d="M334 275l-71 134l-290 -409h-38l314 437l-144 289h39l199 -408l87 408h33l-87 -408l374 408h38l-266 -289l128 -437h-38l-116 409l-129 -134l-58 -275h-33z" />
    <glyph glyph-name="afii10025" unicode="&#x417;" horiz-adv-x="456" 
d="M210 367h-29l6 28h33q77 0 132.5 59t55.5 148q0 51 -29.5 81.5t-77.5 30.5q-57 0 -102.5 -39t-61.5 -94h-33q14 64 75.5 113.5t131.5 49.5q65 0 98.5 -34t33.5 -95q0 -81 -48 -149.5t-124 -83.5q43 -10 64 -26t35 -40q15 -30 15 -72q0 -120 -69 -191t-169 -71
q-74 0 -113.5 37t-39.5 105q0 30 7 61h35q-6 -29 -6 -54q0 -55 31 -87t92 -32q86 0 140.5 60.5t54.5 160.5q0 63 -35.5 99t-102.5 35z" />
    <glyph glyph-name="afii10026" unicode="&#x418;" horiz-adv-x="510" 
d="M524 726l-154 -726h-34l125 590l24 88l-462 -678h-37l154 726h34l-125 -590l-24 -88l462 678h37z" />
    <glyph glyph-name="afii10027" unicode="&#x419;" horiz-adv-x="510" 
d="M505 726l-154 -726h-34l125 590l24 88l-462 -678h-37l154 726h34l-125 -590l-24 -88l462 678h37zM228 904h29q-2 -36 16.5 -54.5t58.5 -18.5q82 0 111 73h29q-14 -47 -55 -75t-93 -28q-49 0 -75 28t-21 75z" />
    <glyph glyph-name="afii10028" unicode="&#x41a;" horiz-adv-x="456" 
d="M82 277l-59 -277h-34l154 726h34l-86 -407l371 407h37l-263 -289l126 -437h-37l-117 408z" />
    <glyph glyph-name="afii10029" unicode="&#x41b;" horiz-adv-x="539" 
d="M207 726h339l-154 -726h-34l148 697h-271l-77 -361q-16 -78 -30.5 -129.5t-36.5 -105.5t-51.5 -81t-66.5 -27q-29 0 -39 2l6 30q12 -3 30 -3q47 0 85 84t74 252z" />
    <glyph glyph-name="afii10030" unicode="&#x41c;" horiz-adv-x="672" 
d="M244 0l-83 673l-17 -129l-115 -544h-34l154 726h35l84 -687l375 687h35l-154 -726h-34l115 544l39 129l-369 -673h-31z" />
    <glyph glyph-name="afii10031" unicode="&#x41d;" horiz-adv-x="510" 
d="M104 375l-80 -375h-34l154 726h34l-68 -322h308l68 322h34l-154 -726h-34l80 375h-308z" />
    <glyph glyph-name="afii10032" unicode="&#x41e;" horiz-adv-x="510" 
d="M174 -18q-79 -1 -112 44t-33 131q0 81 27 207q47 217 124 308q63 72 156 72q77 0 111.5 -44t34.5 -131q0 -67 -25.5 -199t-51.5 -192q-42 -98 -94 -147t-137 -49zM180 11q102 0 163 111q33 60 68 209t35 230q0 154 -116 154q-61 0 -119 -53q-55 -50 -100.5 -214
t-45.5 -289q0 -148 115 -148z" />
    <glyph glyph-name="afii10033" unicode="&#x41f;" horiz-adv-x="510" 
d="M171 697l-148 -697h-34l154 726h378l-154 -726h-34l148 697h-310z" />
    <glyph glyph-name="afii10034" unicode="&#x420;" horiz-adv-x="427" 
d="M103 341l-72 -341h-34l154 726h150q87 0 129 -40q32 -35 32 -90q0 -121 -66 -188t-171 -67h-122zM285 697h-106l-70 -327h96q88 0 137 32q36 22 60 75t24 107q0 59 -28 83q-34 30 -113 30z" />
    <glyph glyph-name="afii10035" unicode="&#x421;" horiz-adv-x="510" 
d="M384 227h35q-23 -105 -84 -175t-159 -70q-84 0 -117 55q-25 43 -22 146q0 67 28 201q24 114 55.5 187.5t81.5 120.5q56 52 138 52q70 0 107.5 -44t37.5 -114q0 -28 -5 -48h-36q5 23 5 45q0 59 -30 95.5t-87 36.5q-61 0 -112 -49q-75 -73 -123 -297q-27 -124 -27 -205
q0 -50 11 -81q28 -72 108 -72q71 0 125.5 66.5t69.5 149.5z" />
    <glyph glyph-name="afii10036" unicode="&#x422;" 
d="M108 0l148 697h-165l6 29h364l-6 -29h-165l-148 -697h-34z" />
    <glyph glyph-name="afii10037" unicode="&#x423;" horiz-adv-x="492" 
d="M565 726l-355 -641q-52 -95 -116 -95q-29 0 -38 3l7 30q10 -2 25 -2q55 0 93 69l29 51l-87 585h37l75 -546l292 546h38z" />
    <glyph glyph-name="afii10038" unicode="&#x424;" horiz-adv-x="665" 
d="M437 614h-34l-106 -498h34q96 0 162 57q47 41 78.5 119t31.5 155q0 79 -43 123.5t-123 43.5zM291 86l-18 -86h-34l18 86h-38q-91 0 -140 50t-49 139q0 91 34.5 173.5t93.5 130.5q80 65 182 65h36l17 82h34l-17 -82h36q89 0 141 -50t52 -137t-35.5 -171.5t-89.5 -130.5
q-81 -69 -185 -69h-38zM229 116h34l106 498h-34q-91 0 -157 -55q-50 -42 -82 -120t-32 -156q0 -79 42 -123.5t123 -43.5z" />
    <glyph glyph-name="afii10039" unicode="&#x425;" horiz-adv-x="456" 
d="M-51 0l261 375l-98 351h39l85 -322l225 322h38l-248 -351l102 -375h-37l-92 347l-239 -347h-36z" />
    <glyph glyph-name="afii10040" unicode="&#x426;" horiz-adv-x="520" 
d="M193 726l-148 -696h311l148 696h34l-148 -696h54l-40 -191h-32l34 161h-401l154 726h34z" />
    <glyph glyph-name="afii10041" unicode="&#x427;" horiz-adv-x="481" 
d="M138 726h34l-47 -223q-13 -66 14 -95q28 -29 101 -29q70 0 143 18l70 329h34l-154 -726h-34l78 366q-73 -16 -143 -16q-110 0 -136 50q-21 40 -7 105z" />
    <glyph glyph-name="afii10042" unicode="&#x428;" horiz-adv-x="783" 
d="M34 31h269l148 695h34l-148 -695h269l148 695h34l-154 -726h-640l154 726h34z" />
    <glyph glyph-name="afii10043" unicode="&#x429;" horiz-adv-x="788" 
d="M52 31h269l147 695h34l-147 -695h269l147 695h34l-147 -695h55l-41 -192h-32l34 161h-663l154 726h34z" />
    <glyph glyph-name="afii10044" unicode="&#x42a;" horiz-adv-x="512" 
d="M72 696l6 30h178l-70 -331h122q154 0 154 -133q0 -66 -25.5 -125t-66.5 -92q-56 -45 -139 -45h-163l148 696h-144zM180 366l-72 -337h110q92 0 150.5 60t58.5 160q0 54 -28 82q-35 35 -123 35h-96z" />
    <glyph glyph-name="afii10045" unicode="&#x42b;" horiz-adv-x="637" 
d="M-3 0l154 726h34l-70 -331h122q154 0 154 -133q0 -67 -26 -125t-67 -92q-54 -45 -139 -45h-162zM109 366l-72 -337h110q92 0 150 60t58 161q0 64 -37 90t-113 26h-96zM654 726l-154 -726h-34l154 726h34z" />
    <glyph glyph-name="afii10046" unicode="&#x42c;" horiz-adv-x="440" 
d="M-3 0l154 726h34l-70 -331h122q154 0 154 -132q0 -65 -26.5 -125t-66.5 -93q-54 -45 -139 -45h-162zM109 366l-72 -337h110q92 0 150 60t58 161q0 64 -36.5 90t-113.5 26h-96z" />
    <glyph glyph-name="afii10047" unicode="&#x42d;" horiz-adv-x="510" 
d="M67 229q-8 -38 -8 -73q0 -37 8 -62q20 -81 103 -81q102 0 164 112q44 79 78 240h-194l7 32h194q21 101 21 162q0 97 -41 133q-25 21 -74 21q-75 0 -129 -62q-45 -52 -58 -116h-36q19 91 82.5 150t149.5 59q61 0 96 -32q48 -44 45 -166q-2 -64 -29 -181.5t-50 -181.5
q-36 -99 -85 -146q-56 -55 -141 -55q-99 0 -129 75q-18 41 -18 95q0 36 9 77h35z" />
    <glyph glyph-name="afii10048" unicode="&#x42e;" horiz-adv-x="705" 
d="M185 726l-71 -331h144q36 168 90 247q72 102 183 102q125 0 142 -121q13 -87 -24 -259q-27 -126 -55.5 -201t-79.5 -125q-57 -56 -145 -56q-76 0 -110.5 43.5t-34.5 129.5q0 78 28 211h-144l-77 -366h-35l154 726h35zM375 11q71 0 124 56q42 44 66.5 111t49.5 186
q32 153 25 229q-5 59 -35 90.5t-80 31.5q-102 0 -164 -117q-33 -63 -67.5 -208t-34.5 -228q0 -151 116 -151z" />
    <glyph glyph-name="afii10049" unicode="&#x42f;" horiz-adv-x="420" 
d="M462 726l-154 -726h-34l70 331h-121l-237 -331h-44l242 333q-115 28 -115 133q0 115 63.5 187.5t167.5 72.5h162zM254 360h96l72 337h-110q-92 0 -150 -60t-58 -161q0 -54 27 -81q36 -35 123 -35z" />
    <glyph glyph-name="afii10065" unicode="&#x430;" horiz-adv-x="364" 
d="M288 311l-139 -60q-90 -38 -109 -127q-11 -50 3.5 -81t54.5 -31q34 0 64 17t48.5 42t30.5 48t15 40zM88 419q27 125 156 125q64 0 86 -32t7 -105l-67 -312q-9 -29 -4.5 -51t28.5 -21l-5 -22q-9 -1 -22 -1q-19 0 -27.5 21.5t0.5 63.5q-19 -46 -59 -70.5t-91 -24.5
q-52 0 -71.5 38.5t-6.5 95.5q10 51 37.5 86t79.5 57l114 47q50 21 68 103q23 105 -74 105q-55 0 -81.5 -24.5t-39.5 -78.5h-28z" />
    <glyph glyph-name="afii10066" unicode="&#x431;" horiz-adv-x="396" 
d="M392 729h24q-8 -36 -51 -49q-22 -7 -52.5 -12.5t-49.5 -12.5t-39 -25q-75 -63 -120 -228q30 61 72 93t82 32q63 0 89 -34t26 -104q0 -53 -16 -127q-29 -142 -86 -210q-50 -62 -127 -62q-114 0 -114 135q0 58 22 163q29 136 63 225.5t94 135.5q39 30 73 39q19 5 40.5 9.5
t31 7t19.5 6t14 7.5t5 11zM150 19q60 0 101 49q45 55 76 198q17 78 17 127q0 54 -20.5 80t-71.5 26q-58 0 -107 -66.5t-69 -164.5q-17 -80 -17 -132q0 -55 21 -86.5t70 -30.5z" />
    <glyph glyph-name="afii10067" unicode="&#x432;" horiz-adv-x="384" 
d="M152 504l-45 -212h84q61 0 102 36.5t41 98.5q0 37 -23 57t-65 20h-94zM196 270h-94l-52 -247h113q60 0 99.5 43.5t39.5 109.5q0 45 -28.5 69.5t-77.5 24.5zM176 0h-159l112 527h127q108 0 108 -88q0 -57 -34 -103t-89 -53q44 -5 66.5 -32.5t22.5 -70.5q0 -77 -45 -129.5
t-109 -50.5z" />
    <glyph glyph-name="afii10068" unicode="&#x433;" horiz-adv-x="286" 
d="M4 0l112 527h221l-5 -23h-193l-107 -504h-28z" />
    <glyph glyph-name="afii10069" unicode="&#x434;" horiz-adv-x="442" 
d="M-9 22h35q57 80 90 154t59 197l33 154h240l-107 -505h47l-37 -171h-25l32 149h-347l-32 -149h-25zM55 22h258l102 482h-184l-31 -145q-22 -104 -55.5 -181t-89.5 -156z" />
    <glyph glyph-name="afii10070" unicode="&#x435;" horiz-adv-x="351" 
d="M332 327l-9 -42h-251l-11 -49q-15 -74 -15 -117q0 -50 21 -78.5t62 -28.5q57 0 91.5 42.5t46.5 101.5h28q-13 -62 -56 -112q-47 -54 -116 -54q-103 0 -103 126q0 60 20 149q24 119 58 183q54 96 141 96q52 0 78 -34t26 -93q0 -37 -11 -90zM76 306h223q16 71 16 117
q0 47 -21.5 73t-60.5 26q-60 0 -99 -62t-58 -154z" />
    <glyph glyph-name="afii10072" unicode="&#x436;" horiz-adv-x="540" 
d="M237 193l-52 111l-199 -304h-29l214 333l-93 194h35l133 -294l62 294h28l-62 -294l257 294h35l-175 -194l72 -333h-29l-69 304l-100 -111l-41 -193h-28z" />
    <glyph glyph-name="afii10073" unicode="&#x437;" horiz-adv-x="378" 
d="M156 274l5 22h27q53 0 87 27q24 19 39.5 55.5t15.5 71.5q0 72 -86 72q-46 0 -82.5 -29.5t-46.5 -75.5h-25q13 65 66 100q39 27 95 27q52 0 81 -22.5t29 -66.5q0 -42 -18.5 -83.5t-48.5 -62.5q-27 -19 -51 -23q38 -8 57.5 -36.5t19.5 -68.5q0 -87 -54 -139t-130 -52
q-124 0 -124 96q0 17 5 40h27q-3 -16 -3 -32q0 -82 95 -82q54 0 90 27q27 20 45 60.5t18 78.5q0 96 -112 96h-21z" />
    <glyph glyph-name="afii10074" unicode="&#x438;" horiz-adv-x="416" 
d="M378 475l-352 -475h-21l112 527h28l-74 -348l-33 -128l352 476h21l-112 -527h-28l74 348z" />
    <glyph glyph-name="afii10075" unicode="&#x439;" horiz-adv-x="426" 
d="M181 698h23q-1 -31 17.5 -47t54.5 -16q72 0 98 63h23q-11 -38 -46 -61.5t-79 -23.5q-45 0 -70 23.5t-21 61.5zM370 475l-352 -475h-21l112 527h28l-74 -348l-33 -128l352 476h21l-112 -527h-28l74 348z" />
    <glyph glyph-name="afii10076" unicode="&#x43a;" horiz-adv-x="348" 
d="M73 193l-41 -193h-28l112 527h28l-62 -294l257 294h35l-175 -194l72 -333h-29l-69 304z" />
    <glyph glyph-name="afii10077" unicode="&#x43b;" horiz-adv-x="415" 
d="M271 0l107 504h-193l-58 -273q-30 -143 -63 -191q-36 -50 -78 -50q-19 0 -29 3v27q11 -5 21 -5q40 0 62 32q29 43 64 208l58 272h249l-112 -527h-28z" />
    <glyph glyph-name="afii10078" unicode="&#x43c;" horiz-adv-x="520" 
d="M3 0l112 527h31l66 -491l274 491h31l-112 -527h-28l80 377l31 109l-269 -478h-26l-67 478l-15 -109l-80 -377h-28z" />
    <glyph glyph-name="afii10079" unicode="&#x43d;" 
d="M7 0l112 527h28l-50 -235h220l50 235h28l-112 -527h-28l57 270h-220l-57 -270h-28z" />
    <glyph glyph-name="afii10080" unicode="&#x43e;" horiz-adv-x="387" 
d="M133 -10q-61 -1 -86.5 37.5t-25.5 108.5q0 56 16 132q24 116 69 186q55 90 148 90q61 0 86.5 -37.5t25.5 -107.5q0 -57 -16 -131q-24 -118 -69 -188q-55 -90 -148 -90zM137 12q83 0 133 100q28 52 49 156q16 74 16 129q0 58 -22 91.5t-66 33.5q-75 0 -127 -98
q-31 -58 -52 -156q-22 -107 -19 -156q2 -48 25.5 -74t62.5 -26z" />
    <glyph glyph-name="afii10081" unicode="&#x43f;" 
d="M7 0l112 527h276l-112 -527h-28l107 504h-220l-107 -504h-28z" />
    <glyph glyph-name="afii10082" unicode="&#x440;" horiz-adv-x="395" 
d="M103 271q-10 -49 -19 -135q-6 -55 21.5 -89.5t69.5 -34.5q39 0 68.5 21t49 62t30 77.5t21.5 90.5q18 89 20 154q1 52 -20.5 78.5t-61.5 26.5q-41 0 -78.5 -31t-62.5 -86q-15 -31 -38 -134zM-21 -193l153 720h28l-18 -82q26 52 66.5 75.5t77.5 23.5q59 0 82.5 -33.5
t23.5 -100.5q0 -66 -18 -148q-31 -142 -75.5 -207t-126.5 -65q-88 0 -107 93l-58 -276h-28z" />
    <glyph glyph-name="afii10083" unicode="&#x441;" horiz-adv-x="360" 
d="M266 159h29q-14 -71 -59 -120t-111 -49q-60 0 -85.5 35t-25.5 103q0 57 17 132q25 118 67 194q53 90 143 90q64 0 88 -48q15 -30 15 -66q0 -11 -4 -35h-27q3 15 3 30q0 40 -21.5 68t-62.5 28q-73 0 -117 -88q-28 -54 -53 -173q-19 -86 -19 -149q0 -46 24 -72t64 -26
q54 0 84.5 40.5t50.5 105.5z" />
    <glyph glyph-name="afii10084" unicode="&#x442;" horiz-adv-x="293" 
d="M74 0l107 504h-122l5 23h278l-5 -23h-128l-107 -504h-28z" />
    <glyph glyph-name="afii10085" unicode="&#x443;" horiz-adv-x="331" 
d="M-50 -191l5 24q14 -2 16 -2q14 -1 26.5 1t23.5 8.5t19.5 12t17 18t14 19.5t12.5 23t10.5 22.5t10.5 24.5l9 23l-18 544h30l16 -493l234 493h28l-295 -618q-25 -55 -56.5 -78.5t-77.5 -23.5q-12 0 -25 2z" />
    <glyph glyph-name="afii10086" unicode="&#x444;" horiz-adv-x="621" 
d="M306 178l-9 -55q10 -52 33 -81t53 -29q73 0 115 85q27 49 54 171q19 89 19 143q0 109 -80 109q-64 0 -133 -110l-14 -55zM397 726h28l-43 -199l-18 -76q63 93 132 93q60 0 82 -32t22 -97q0 -57 -18 -146q-25 -124 -70 -199q-25 -42 -55.5 -61t-78.5 -19q-30 0 -55 22.5
t-37 70.5l-14 -76l-43 -200h-28l43 199l19 77q-63 -93 -132 -93q-60 0 -82 32t-22 97q0 63 19 151q26 123 69 194q26 42 56 61t78 19q30 0 55 -22.5t37 -70.5l13 76zM283 178l38 178l10 55q-10 52 -33.5 81t-53.5 29q-71 0 -115 -85q-26 -47 -52 -167q-21 -96 -21 -149
q0 -107 80 -107q30 0 65.5 29t68.5 81z" />
    <glyph glyph-name="afii10087" unicode="&#x445;" horiz-adv-x="347" 
d="M270 0h-31l-69 255l-176 -255h-29l192 276l-70 251h30l62 -233l162 233h32l-179 -251z" />
    <glyph glyph-name="afii10088" unicode="&#x446;" horiz-adv-x="401" 
d="M163 527l-107 -504h220l107 504h28l-107 -504h46l-37 -172h-24l32 149h-298l112 527h28z" />
    <glyph glyph-name="afii10089" unicode="&#x447;" horiz-adv-x="379" 
d="M347 527h28l-112 -527h-28l58 274q-60 -17 -113 -17q-103 0 -103 104q0 28 7 57l23 109h28l-25 -119q-5 -25 -5 -41q0 -41 21.5 -64t58.5 -23q49 0 113 17z" />
    <glyph glyph-name="afii10090" unicode="&#x448;" horiz-adv-x="604" 
d="M488 0h-486l112 527h28l-107 -504h201l107 504h28l-107 -504h201l107 504h28z" />
    <glyph glyph-name="afii10091" unicode="&#x449;" horiz-adv-x="607" 
d="M527 0h-508l112 527h28l-107 -504h201l107 504h28l-107 -504h201l107 504h28l-107 -504h46l-37 -172h-24z" />
    <glyph glyph-name="afii10092" unicode="&#x44a;" horiz-adv-x="406" 
d="M136 270l-52 -247h110q65 0 104 43t39 120q0 84 -93 84h-108zM200 0h-149l107 504h-106l5 23h134l-50 -235h121q49 0 78 -26.5t29 -76.5q0 -82 -49 -136.5t-120 -52.5z" />
    <glyph glyph-name="afii10093" unicode="&#x44b;" horiz-adv-x="536" 
d="M90 270l-52 -247h110q65 0 104 43t39 120q0 84 -93 84h-108zM154 0h-149l112 527h28l-50 -235h121q49 0 78 -26.5t29 -76.5q0 -82 -49 -136.5t-120 -52.5zM531 527l-112 -527h-28l112 527h28z" />
    <glyph glyph-name="afii10094" unicode="&#x44c;" horiz-adv-x="358" 
d="M90 270l-52 -247h110q64 0 103.5 43t39.5 120q0 84 -93 84h-108zM154 0h-149l112 527h28l-50 -235h121q49 0 78 -26.5t29 -76.5q0 -82 -49 -135.5t-120 -53.5z" />
    <glyph glyph-name="afii10095" unicode="&#x44d;" horiz-adv-x="347" 
d="M41 161q-6 -34 -6 -50q0 -96 84 -96q71 0 116 78q32 60 57 181h-146l6 25h146q12 60 12 103q0 66 -21 93q-19 24 -59 24q-50 0 -87 -37t-48 -89h-27q14 68 58.5 109.5t110.5 41.5q102 0 102 -125q0 -59 -19 -148q-29 -135 -61 -191q-51 -90 -145 -90q-72 0 -94 54
q-12 24 -12 64q0 23 5 53h28z" />
    <glyph glyph-name="afii10096" unicode="&#x44e;" horiz-adv-x="562" 
d="M143 527l-49 -231h127q24 114 70 175q55 73 140 73q112 0 112 -143q0 -53 -17 -133q-58 -278 -216 -278q-60 0 -86 36t-26 105q0 59 18 143h-127l-58 -274h-28l112 527h28zM314 13q39 0 69.5 20t51.5 58.5t34.5 80t25.5 96.5q17 82 17 131q0 57 -22.5 89.5t-65.5 32.5
q-75 0 -127 -97q-29 -55 -51 -156q-20 -96 -20 -156q0 -47 24 -73t64 -26z" />
    <glyph glyph-name="afii10097" unicode="&#x44f;" horiz-adv-x="344" 
d="M172 258h109l52 246h-111q-58 0 -100.5 -43.5t-42.5 -118.5q0 -41 24.5 -62.5t68.5 -21.5zM217 527h149l-112 -527h-28l50 236h-108l-171 -236h-34l172 236q-85 19 -85 98q0 83 47 138t120 55z" />
    <glyph glyph-name="afii10071" unicode="&#x451;" horiz-adv-x="347" 
d="M309 327l-10 -43h-251q-25 -120 -25 -164q0 -108 83 -108q57 0 91 42.5t47 100.5h26q-13 -66 -55 -112q-46 -53 -115 -53q-103 0 -103 126q0 59 19 148q27 125 59 184q52 96 141 96q104 0 104 -127q0 -37 -11 -90zM53 307h223q16 74 16 116q0 46 -21 72.5t-61 26.5
q-110 0 -157 -215zM175 624h-35l15 73h35zM327 624h-33l15 73h33z" />
    <glyph glyph-name="afii10099" unicode="&#x452;" 
d="M28 0h-28l123 579h-48l5 22h48l30 143h28l-30 -143h117l-5 -22h-117l-26 -122q28 41 71 64t78 23q71 0 91 -46q8 -15 8 -38q0 -22 -10 -72l-97 -456q-8 -36 -16 -54.5t-27 -31.5q-25 -18 -71 -18l5 25q38 0 55 20.5t29 74.5l92 433q9 38 9 68q0 36 -17.5 55t-58.5 19
q-48 0 -95.5 -39t-59.5 -96z" />
    <glyph glyph-name="afii10100" unicode="&#x453;" horiz-adv-x="281" 
d="M-9 0l112 527h221l-5 -24h-193l-107 -503h-28zM275 651h43l-98 -107h-23z" />
    <glyph glyph-name="afii10101" unicode="&#x454;" horiz-adv-x="347" 
d="M266 154h29q-13 -67 -53 -114q-45 -55 -117 -55q-110 0 -110 124q0 59 21 156q24 116 62 184q53 90 143 90q49 0 76 -31.5t27 -82.5q0 -11 -4 -35h-28q4 20 4 30q0 97 -84 97q-115 0 -163 -226h132l-5 -22h-132q-24 -116 -21 -163q2 -47 25.5 -73t62.5 -26
q54 0 84.5 40.5t50.5 106.5z" />
    <glyph glyph-name="afii10102" unicode="&#x455;" horiz-adv-x="362" 
d="M166 320l78 -47q19 -14 27 -25q24 -28 24 -73q0 -86 -49 -135.5t-122 -49.5q-119 0 -119 93q0 18 5 43h27q-3 -14 -3 -26q0 -39 25 -63.5t71 -24.5q55 0 95 46.5t40 105.5q0 55 -40 79l-85 53q-62 39 -62 89q0 74 43.5 116.5t110.5 42.5q53 0 80.5 -25t27.5 -68
q0 -18 -4 -34h-27q2 14 2 21q0 35 -23 59.5t-63 24.5q-46 0 -81 -33.5t-36 -86.5q-1 -29 13.5 -46t44.5 -36z" />
    <glyph glyph-name="afii10103" unicode="&#x456;" horiz-adv-x="188" 
d="M143 527l-112 -527h-28l112 527h28zM173 653h-35l15 73h35z" />
    <glyph glyph-name="afii10104" unicode="&#x457;" horiz-adv-x="166" 
d="M132 526l-112 -526h-28l112 526h28zM141 726l-15 -73h-28l15 73h28zM207 726l-15 -73h-28l15 73h28z" />
    <glyph glyph-name="afii10105" unicode="&#x458;" horiz-adv-x="188" 
d="M-75 -189l5 25q38 0 55.5 21t28.5 74l127 596h28l-130 -612q-8 -36 -16 -54.5t-26 -31.5q-26 -18 -72 -18zM211 726l-14 -67h-28l14 67h28z" />
    <glyph glyph-name="afii10106" unicode="&#x459;" horiz-adv-x="639" 
d="M420 0h-149l107 504h-193l-58 -273q-30 -143 -63 -191q-36 -50 -78 -50q-19 0 -29 3v27q11 -5 21 -5q40 0 62 32q29 43 64 208l58 272h249l-50 -235h121q106 0 106 -95q0 -84 -47.5 -140.5t-120.5 -56.5zM357 270l-53 -247h110q67 0 105.5 45t38.5 125q0 77 -93 77h-108z
" />
    <glyph glyph-name="afii10107" unicode="&#x45a;" horiz-adv-x="624" 
d="M404 0h-149l57 270h-220l-57 -270h-28l112 527h28l-50 -235h220l50 235h28l-50 -235h121q106 0 106 -95q0 -84 -47.5 -140.5t-120.5 -56.5zM340 270l-52 -247h110q67 0 105.5 45t38.5 125q0 39 -22.5 58t-71.5 19h-108z" />
    <glyph glyph-name="afii10108" unicode="&#x45b;" 
d="M10 0h-28l123 579h-48l5 22h48l30 143h28l-30 -143h117l-5 -22h-117l-26 -122q27 41 70 64t79 23q71 0 91 -46q8 -18 8 -38q0 -25 -11 -72l-82 -388h-28l81 381q9 45 9 68q0 36 -17.5 55t-58.5 19q-48 0 -96 -39t-60 -96z" />
    <glyph glyph-name="afii10109" unicode="&#x45c;" horiz-adv-x="348" 
d="M60 193l-41 -193h-28l112 527h28l-63 -294l258 294h35l-175 -194l72 -333h-29l-69 304zM281 651h43l-98 -107h-23z" />
    <glyph glyph-name="afii10110" unicode="&#x45e;" horiz-adv-x="347" 
d="M-67 -191l6 24h12q19 -4 35 -1t30.5 17l23.5 23t22.5 35.5t17 35t17.5 39.5l-18 544h30l16 -493l234 493h28l-254 -530q-43 -92 -48 -100q-32 -57 -67 -77q-21 -12 -51 -12q-8 0 -16 0.5t-13 0.5zM154 692h23q-1 -31 17.5 -47t54.5 -16q73 0 98 63h23q-11 -38 -46 -61.5
t-79 -23.5q-45 0 -70 23.5t-21 61.5z" />
    <glyph glyph-name="afii10193" unicode="&#x45f;" horiz-adv-x="401" 
d="M163 527l-107 -505h220l107 505h28l-112 -527h-126l-32 -149h-24l32 149h-126l112 527h28z" />
    <glyph glyph-name="afii10050" unicode="&#x490;" horiz-adv-x="401" 
d="M438 695h-269l-148 -695h-34l155 726h268l15 73h35z" />
    <glyph glyph-name="afii10098" unicode="&#x491;" horiz-adv-x="286" 
d="M-2 0l112 527h193l12 55h28l-17 -79h-193l-107 -503h-28z" />
    <glyph glyph-name="endash" unicode="&#x2013;" horiz-adv-x="456" 
d="M458 296l-4 -21h-456l4 21h456z" />
    <glyph glyph-name="emdash" unicode="&#x2014;" horiz-adv-x="940" 
d="M942 296l-4 -21h-940l4 21h940z" />
    <glyph glyph-name="quoteleft" unicode="&#x2018;" horiz-adv-x="127" 
d="M100 722l-2 -8q-31 -13 -47 -84l-9 -41h29l-13 -61h-39l9 42q1 6 5.5 27t6.5 29t7 25.5t9.5 26t11 19.5t14.5 16.5t18 8.5z" />
    <glyph glyph-name="quoteright" unicode="&#x2019;" horiz-adv-x="127" 
d="M27 532l2 8q31 13 47 84l9 41h-29l13 61h39l-15 -69q-4 -15 -7 -33q-18 -82 -59 -92z" />
    <glyph glyph-name="quotesinglbase" unicode="&#x201a;" horiz-adv-x="188" 
d="M54 -133l2 8q31 13 47 84l9 41h-29l13 61h39l-15 -69q-4 -15 -7 -33q-18 -82 -59 -92z" />
    <glyph glyph-name="quotedblleft" unicode="&#x201c;" horiz-adv-x="294" 
d="M142 722l-2 -8q-32 -13 -48 -84l-9 -41h30l-13 -61h-40l9 42q1 7 5.5 27.5l6.5 29t6.5 25.5t9 25.5t11.5 19.5t15.5 16.5t18.5 8.5zM268 722l-2 -8q-32 -13 -48 -84l-9 -41h30l-13 -61h-40l9 42q1 6 5.5 27t6.5 29t7 25.5t9.5 26t11 19.5t15 16.5t18.5 8.5z" />
    <glyph glyph-name="quotedblright" unicode="&#x201d;" horiz-adv-x="294" 
d="M152 532l2 8q31 13 47 84l9 41h-29l13 61h39l-15 -69q-4 -15 -7 -33q-18 -82 -59 -92zM26 532l2 8q31 13 47 84l9 41h-29l13 61h39l-15 -69q-4 -15 -7 -33q-18 -82 -59 -92z" />
    <glyph glyph-name="quotedblbase" unicode="&#x201e;" horiz-adv-x="290" 
d="M167 -133l2 8q31 13 47 84l9 41h-29l13 61h39l-15 -69q-4 -15 -7 -33q-18 -82 -59 -92zM41 -133l2 8q31 13 47 84l9 41h-29l13 61h39l-15 -69q-4 -15 -7 -33q-18 -82 -59 -92z" />
    <glyph glyph-name="dagger" unicode="&#x2020;" 
d="M308 744l-49 -230h154l-5 -22h-154l-129 -609h-28l129 609h-156l5 22h156l49 230h28z" />
    <glyph glyph-name="daggerdbl" unicode="&#x2021;" 
d="M141 344h144l-2 -12h-138v-27q0 -46 -6 -71q-13 -59 -47 -110.5t-108 -109.5q62 15 86 18q23 4 37 4q17 0 62.5 -13t63.5 -13q40 0 72 19l7 -22q-38 -22 -90 -22q-10 0 -26 4l-95 28l-27 3q-25 2 -67 -14q-14 -7 -39 -22l-11 17q54 41 91 87q43 57 58 129q8 38 8 74
q0 13 -2 41h-97l2 12h94q-20 89 -20 141q0 31 9 76q14 65 65 108.5t114 43.5q87 0 118 -56q15 -31 15 -75q0 -28 -6 -58h-30q5 20 5 50q0 33 -7 55q-21 60 -93 60q-58 0 -99 -39.5t-54 -101.5q-7 -32 -7 -57q0 -13 1 -20q1 -9 19 -127z" />
    <glyph glyph-name="bullet" unicode="&#x2022;" horiz-adv-x="334" 
d="M267 217q-9 -43 -44.5 -73t-78.5 -30q-35 0 -57.5 22.5t-22.5 57.5q0 12 3 23q9 44 44 74.5t78 30.5q37 0 59 -22.5t22 -58.5q0 -11 -3 -24z" />
    <glyph glyph-name="ellipsis" unicode="&#x2026;" horiz-adv-x="940" 
d="M174 58l-12 -58h-40l12 58h40zM496 58l-12 -58h-39l12 58h39zM819 58l-12 -58h-40l12 58h40z" />
    <glyph glyph-name="perthousand" unicode="&#x2030;" horiz-adv-x="940" 
d="M101 -16h-12l438 732h12zM478 330q63 0 79 -49q8 -21 8 -45q0 -28 -9 -69q-18 -84 -48 -123q-36 -45 -102 -45t-82 44q-6 18 -6 43q0 32 9 78q17 79 47 117q39 49 104 49zM409 13q28 0 49 11.5t34.5 34.5t21.5 46.5t15 58.5q10 43 10 76q0 76 -64 76q-89 0 -123 -152
q-10 -53 -10 -80q0 -10 2 -22q11 -49 65 -49zM791 330q62 0 78 -49q9 -19 9 -47t-9 -67q-18 -85 -49 -123q-36 -45 -101 -45q-66 0 -82 44q-6 18 -6 43q0 32 9 78q17 79 47 117q39 49 104 49zM722 13q53 0 78.5 39t40.5 112q10 43 10 76q0 76 -63 76q-89 0 -123 -152
q-10 -53 -10 -80q0 -10 2 -22q10 -49 65 -49zM223 702q62 0 80 -47q7 -18 7 -45q0 -30 -9 -70q-17 -84 -48 -122q-36 -47 -102 -47q-65 0 -81 46q-7 17 -7 43q0 33 10 77q16 79 48 118q38 47 102 47zM154 385q54 0 80 40t41 112q9 45 9 74q0 77 -64 77q-89 0 -121 -151
q-11 -53 -11 -81q0 -10 2 -22q12 -49 64 -49z" />
    <glyph glyph-name="guilsinglleft" unicode="&#x2039;" horiz-adv-x="294" 
d="M177 171l-6 -25l-101 98l6 29l143 97l-5 -22l-126 -90z" />
    <glyph glyph-name="guilsinglright" unicode="&#x203a;" horiz-adv-x="294" 
d="M75 146l6 25l125 87l-88 90l5 22l101 -97l-6 -29z" />
    <glyph glyph-name="Euro" unicode="&#x20ac;" 
d="M438 682l-8 -37q-29 43 -102 43q-72 0 -123 -70.5t-81 -188.5h220l-14 -29h-214l-11 -50q-5 -25 -8 -43h190l-14 -29h-181q-21 -130 3 -196t89 -66q71 0 122 43l-8 -38q-45 -35 -123 -35q-161 0 -113 292h-52l14 29h42q5 25 8 43q5 25 12 50h-50l14 29h43q78 290 240 290
q76 0 105 -37z" />
    <glyph glyph-name="afii61352" unicode="&#x2116;" horiz-adv-x="743" 
d="M140 726h37l174 -678l14 88l125 590h34l-154 -726h-37l-174 678l-14 -88l-125 -590h-34zM608 311q-44 0 -61 21t-17 64q0 59 14.5 112.5t50 93t85.5 39.5q77 0 77 -87q0 -41 -8 -81t-24 -78t-46.5 -61t-70.5 -23zM608 332q40 0 70 37.5t42 86.5t11 95q-2 69 -57 69
q-40 0 -68.5 -42.5t-39 -90.5t-10.5 -89q0 -66 52 -66zM677 252l-4 -23h-159l4 23h159z" />
    <glyph glyph-name="trademark" unicode="&#x2122;" horiz-adv-x="672" 
d="M285 339l86 405h22l43 -377l202 377h22l-86 -405h-22l62 290l25 83l-199 -367h-19l-43 367l-9 -83l-62 -290h-22zM101 339l82 387h-98l4 18h222l-4 -18h-102l-82 -387h-22z" />
    <glyph glyph-name="hyphenminus" horiz-adv-x="293" 
d="M259 299l-6 -28h-223l6 28h223z" />
    </font>
</defs>
</svg>
