<svg width="18" height="12" viewBox="0 0 18 12" fill="none" xmlns="http://www.w3.org/2000/svg">
<path d="M17.081 1.84879C16.8865 1.12586 16.3165 0.555977 15.5937 0.361313C14.2732 0 8.991 0 8.991 0C8.991 0 3.70902 0 2.3885 0.347614C1.67957 0.542072 1.09568 1.12596 0.901222 1.84879C0.553711 3.16921 0.553711 5.90759 0.553711 5.90759C0.553711 5.90759 0.553711 8.65977 0.901222 9.96638C1.09589 10.6892 1.66566 11.2591 2.3886 11.4538C3.72292 11.8152 8.99121 11.8152 8.99121 11.8152C8.99121 11.8152 14.2732 11.8152 15.5937 11.4676C16.3167 11.273 16.8865 10.7031 17.0812 9.98029C17.4286 8.65977 17.4286 5.92149 17.4286 5.92149C17.4286 5.92149 17.4425 3.16921 17.081 1.84879V1.84879ZM7.30927 8.4374V3.37778L11.7017 5.90759L7.30927 8.4374Z" fill="black"/>
</svg>
